<?xml version="1.0" encoding="UTF-8"?>
<svg version="1.1" xmlns="http://www.w3.org/2000/svg" width="873" height="907">
<path d="M0 0 C7.35325416 4.06206451 14.78605087 7.95099326 22.25537109 11.79492188 C31.42317665 16.51765253 40.51434773 21.35284679 49.54833984 26.32617188 C56.39870222 30.08539548 63.31297175 33.70888392 70.25537109 37.29492188 C79.05264109 41.83925618 87.77128618 46.50324091 96.44677734 51.27539062 C103.3318547 55.04979994 110.27950609 58.69143824 117.25537109 62.29492188 C126.0526323 66.83927398 134.77128566 71.50324063 143.44677734 76.27539062 C150.3318547 80.04979994 157.27950609 83.69143824 164.25537109 87.29492188 C173.0526323 91.83927398 181.77128566 96.50324063 190.44677734 101.27539062 C197.3318547 105.04979994 204.27950609 108.69143824 211.25537109 112.29492188 C220.0526323 116.83927398 228.77128566 121.50324063 237.44677734 126.27539062 C244.3318547 130.04979994 251.27950609 133.69143824 258.25537109 137.29492188 C267.0526323 141.83927398 275.77128566 146.50324063 284.44677734 151.27539062 C291.33189083 155.04981974 298.28018449 158.69007605 305.25537109 162.29492188 C309.42410822 164.4576235 313.59050048 166.62478426 317.75537109 168.79492188 C318.75761719 169.31618652 319.75986328 169.83745117 320.79248047 170.37451172 C344.65808 182.85113416 362.78634011 196.48536223 372.96630859 222.22070312 C375.81386838 231.5105145 376.04360699 240.29158438 376.02279663 249.92385864 C376.02653661 251.56673321 376.03113951 253.20960601 376.03652728 254.852476 C376.04872994 259.35243113 376.04850003 263.85231177 376.04613853 268.35227966 C376.04572966 273.21136107 376.0567762 278.07041881 376.06625366 282.92948914 C376.08285007 292.44437862 376.08836261 301.95924333 376.08947842 311.47414608 C376.09042962 319.21122095 376.09454351 326.94828767 376.10087967 334.68535995 C376.11848903 356.63587965 376.12771912 378.58637981 376.12621872 400.53690661 C376.12609885 402.31107925 376.12609885 402.31107925 376.12597656 404.12109375 C376.1258948 405.30532487 376.12581304 406.489556 376.1257288 407.70967291 C376.12491618 426.8948848 376.14404869 446.08001813 376.1722533 465.26520731 C376.20100506 484.97863659 376.2147923 504.69202758 376.21306574 524.40547836 C376.21240259 535.46731438 376.2178619 546.52906806 376.23942184 557.59088516 C376.25766388 567.01054888 376.26195622 576.43009293 376.248403 585.84976669 C376.24188838 590.65165314 376.2417015 595.45331023 376.2591095 600.25517464 C376.2749123 604.65974681 376.2719036 609.06390913 376.25454123 613.46847175 C376.2514871 615.05325238 376.25504317 616.63806415 376.26626138 618.22280802 C376.41312765 640.46081661 368.93411559 658.81819836 353.62646484 675.05273438 C342.2895007 686.06359295 327.22038296 692.68688163 313.32495117 699.83911133 C306.45520249 703.37553578 299.64712078 707.00303066 292.88037109 710.73242188 C283.59683497 715.84239201 274.20747214 720.72835785 264.78759766 725.58154297 C256.78115618 729.7169509 248.85624185 733.98051499 240.96240234 738.32617188 C234.11203997 742.08539548 227.19777044 745.70888392 220.25537109 749.29492188 C212.36875182 753.36884873 204.53305365 757.51663205 196.75537109 761.79492188 C187.93070691 766.64912757 179.01980347 771.31722123 170.07177734 775.93945312 C163.25070805 779.47224427 156.4858308 783.09268061 149.75537109 786.79492188 C140.93070691 791.64912757 132.01980347 796.31722123 123.07177734 800.93945312 C116.25070805 804.47224427 109.4858308 808.09268061 102.75537109 811.79492188 C93.93070691 816.64912757 85.01980347 821.31722123 76.07177734 825.93945312 C69.25070805 829.47224427 62.4858308 833.09268061 55.75537109 836.79492188 C46.92927269 841.6499165 38.01694786 846.31882789 29.06738281 850.94165039 C22.28888561 854.45226119 15.56827669 858.05251192 8.88037109 861.73242188 C1.09801245 865.99594403 -6.69995101 870.22965614 -14.55059814 874.36624146 C-16.24476165 875.26194822 -17.93305362 876.16873363 -19.62109375 877.07592773 C-38.61564912 887.02813035 -61.16229359 890.45425019 -82.24462891 885.35742188 C-96.04110576 880.85277016 -108.83803927 873.58552535 -121.48901367 866.58984375 C-128.84247788 862.52801512 -136.27524353 858.63888402 -143.74462891 854.79492188 C-152.91243446 850.07219122 -162.00360555 845.23699696 -171.03759766 840.26367188 C-177.88796003 836.50444827 -184.80222956 832.88095983 -191.74462891 829.29492188 C-200.54189891 824.75058757 -209.26054399 820.08660284 -217.93603516 815.31445312 C-224.82111251 811.54004381 -231.76876391 807.89840551 -238.74462891 804.29492188 C-247.54189011 799.75056977 -256.26054347 795.08660312 -264.93603516 790.31445312 C-271.82111251 786.54004381 -278.76876391 782.89840551 -285.74462891 779.29492188 C-294.54189011 774.75056977 -303.26054347 770.08660312 -311.93603516 765.31445312 C-318.82111251 761.54004381 -325.76876391 757.89840551 -332.74462891 754.29492188 C-341.54189011 749.75056977 -350.26054347 745.08660312 -358.93603516 740.31445312 C-365.82111251 736.54004381 -372.76876391 732.89840551 -379.74462891 729.29492188 C-388.54189011 724.75056977 -397.26054347 720.08660312 -405.93603516 715.31445312 C-412.82114864 711.54002401 -419.76944231 707.8997677 -426.74462891 704.29492188 C-430.91336603 702.13222025 -435.07975829 699.96505949 -439.24462891 697.79492188 C-440.74799805 697.0130249 -440.74799805 697.0130249 -442.28173828 696.21533203 C-466.14733781 683.73870959 -484.27559792 670.10448152 -494.45556641 644.36914062 C-497.30312619 635.07932925 -497.5328648 626.29825937 -497.51205444 616.66598511 C-497.51579442 615.02311054 -497.52039732 613.38023774 -497.52578509 611.73736775 C-497.53798775 607.23741262 -497.53775785 602.73753198 -497.53539634 598.23756409 C-497.53498747 593.37848268 -497.54603401 588.51942494 -497.55551147 583.66035461 C-497.57210788 574.14546513 -497.57762042 564.63060042 -497.57873623 555.11569767 C-497.57968743 547.3786228 -497.58380132 539.64155608 -497.59013748 531.9044838 C-497.60774684 509.9539641 -497.61697693 488.00346394 -497.61547653 466.05293714 C-497.61539662 464.87015538 -497.61531671 463.68737363 -497.61523438 462.46875 C-497.61515261 461.28451888 -497.61507085 460.10028775 -497.61498661 458.88017084 C-497.61417399 439.69495895 -497.63330651 420.50982562 -497.66151111 401.32463644 C-497.69026287 381.61120716 -497.70405011 361.89781617 -497.70232356 342.18436539 C-497.70166041 331.12252937 -497.70711971 320.06077569 -497.72867966 308.99895859 C-497.74692169 299.57929487 -497.75121403 290.15975082 -497.73766081 280.74007706 C-497.73114619 275.93819061 -497.73095931 271.13653352 -497.74836731 266.33466911 C-497.76417011 261.93009694 -497.76116142 257.52593462 -497.74379905 253.121372 C-497.74074491 251.53659137 -497.74430099 249.9517796 -497.7555192 248.36703573 C-497.90238546 226.12902714 -490.4233734 207.77164539 -475.11572266 191.53710938 C-463.44525893 180.20234426 -447.83560433 173.45519825 -433.53442383 166.11083984 C-426.33977808 162.41525132 -419.20365654 158.63561401 -412.11962891 154.73242188 C-404.38428823 150.47348762 -396.59007361 146.34742031 -388.74462891 142.29492188 C-380.85800963 138.22099502 -373.02231146 134.0732117 -365.24462891 129.79492188 C-356.41996472 124.94071618 -347.50906128 120.27262252 -338.56103516 115.65039062 C-331.73996586 112.11759948 -324.97508861 108.49716314 -318.24462891 104.79492188 C-309.41996472 99.94071618 -300.50906128 95.27262252 -291.56103516 90.65039062 C-284.73996586 87.11759948 -277.97508861 83.49716314 -271.24462891 79.79492188 C-262.41996472 74.94071618 -253.50906128 70.27262252 -244.56103516 65.65039062 C-237.73996586 62.11759948 -230.97508861 58.49716314 -224.24462891 54.79492188 C-215.41996472 49.94071618 -206.50906128 45.27262252 -197.56103516 40.65039062 C-190.73996586 37.11759948 -183.97508861 33.49716314 -177.24462891 29.79492188 C-168.4185305 24.93992725 -159.50620568 20.27101586 -150.55664062 15.64819336 C-143.77814342 12.13758256 -137.05753451 8.53733183 -130.36962891 4.85742188 C-122.58727027 0.59389972 -114.7893068 -3.63981239 -106.93865967 -7.77639771 C-105.24449616 -8.67210447 -103.55620419 -9.57888988 -101.86816406 -10.48608398 C-65.71432269 -29.42889931 -33.20431384 -18.35954588 0 0 Z " fill="#FF891E" transform="translate(497.24462890625,20.205078125)"/>
<path d="M0 0 C7.35325416 4.06206451 14.78605087 7.95099326 22.25537109 11.79492188 C31.42317665 16.51765253 40.51434773 21.35284679 49.54833984 26.32617188 C56.39870222 30.08539548 63.31297175 33.70888392 70.25537109 37.29492188 C79.05264109 41.83925618 87.77128618 46.50324091 96.44677734 51.27539062 C103.3318547 55.04979994 110.27950609 58.69143824 117.25537109 62.29492188 C126.0526323 66.83927398 134.77128566 71.50324063 143.44677734 76.27539062 C150.3318547 80.04979994 157.27950609 83.69143824 164.25537109 87.29492188 C173.0526323 91.83927398 181.77128566 96.50324063 190.44677734 101.27539062 C197.3318547 105.04979994 204.27950609 108.69143824 211.25537109 112.29492188 C220.0526323 116.83927398 228.77128566 121.50324063 237.44677734 126.27539062 C244.3318547 130.04979994 251.27950609 133.69143824 258.25537109 137.29492188 C267.0526323 141.83927398 275.77128566 146.50324063 284.44677734 151.27539062 C291.33189083 155.04981974 298.28018449 158.69007605 305.25537109 162.29492188 C309.42410822 164.4576235 313.59050048 166.62478426 317.75537109 168.79492188 C318.75761719 169.31618652 319.75986328 169.83745117 320.79248047 170.37451172 C344.65808 182.85113416 362.78634011 196.48536223 372.96630859 222.22070312 C375.81386838 231.5105145 376.04360699 240.29158438 376.02279663 249.92385864 C376.02653661 251.56673321 376.03113951 253.20960601 376.03652728 254.852476 C376.04872994 259.35243113 376.04850003 263.85231177 376.04613853 268.35227966 C376.04572966 273.21136107 376.0567762 278.07041881 376.06625366 282.92948914 C376.08285007 292.44437862 376.08836261 301.95924333 376.08947842 311.47414608 C376.09042962 319.21122095 376.09454351 326.94828767 376.10087967 334.68535995 C376.11848903 356.63587965 376.12771912 378.58637981 376.12621872 400.53690661 C376.12609885 402.31107925 376.12609885 402.31107925 376.12597656 404.12109375 C376.1258948 405.30532487 376.12581304 406.489556 376.1257288 407.70967291 C376.12491618 426.8948848 376.14404869 446.08001813 376.1722533 465.26520731 C376.20100506 484.97863659 376.2147923 504.69202758 376.21306574 524.40547836 C376.21240259 535.46731438 376.2178619 546.52906806 376.23942184 557.59088516 C376.25766388 567.01054888 376.26195622 576.43009293 376.248403 585.84976669 C376.24188838 590.65165314 376.2417015 595.45331023 376.2591095 600.25517464 C376.2749123 604.65974681 376.2719036 609.06390913 376.25454123 613.46847175 C376.2514871 615.05325238 376.25504317 616.63806415 376.26626138 618.22280802 C376.41312765 640.46081661 368.93411559 658.81819836 353.62646484 675.05273438 C342.2895007 686.06359295 327.22038296 692.68688163 313.32495117 699.83911133 C306.45520249 703.37553578 299.64712078 707.00303066 292.88037109 710.73242188 C283.59683497 715.84239201 274.20747214 720.72835785 264.78759766 725.58154297 C256.78115618 729.7169509 248.85624185 733.98051499 240.96240234 738.32617188 C234.11203997 742.08539548 227.19777044 745.70888392 220.25537109 749.29492188 C212.36875182 753.36884873 204.53305365 757.51663205 196.75537109 761.79492188 C187.93070691 766.64912757 179.01980347 771.31722123 170.07177734 775.93945312 C163.25070805 779.47224427 156.4858308 783.09268061 149.75537109 786.79492188 C140.93070691 791.64912757 132.01980347 796.31722123 123.07177734 800.93945312 C116.25070805 804.47224427 109.4858308 808.09268061 102.75537109 811.79492188 C93.93070691 816.64912757 85.01980347 821.31722123 76.07177734 825.93945312 C69.25070805 829.47224427 62.4858308 833.09268061 55.75537109 836.79492188 C46.92927269 841.6499165 38.01694786 846.31882789 29.06738281 850.94165039 C22.28888561 854.45226119 15.56827669 858.05251192 8.88037109 861.73242188 C1.09801245 865.99594403 -6.69995101 870.22965614 -14.55059814 874.36624146 C-16.24476165 875.26194822 -17.93305362 876.16873363 -19.62109375 877.07592773 C-38.61564912 887.02813035 -61.16229359 890.45425019 -82.24462891 885.35742188 C-96.04110576 880.85277016 -108.83803927 873.58552535 -121.48901367 866.58984375 C-128.84247788 862.52801512 -136.27524353 858.63888402 -143.74462891 854.79492188 C-152.91243446 850.07219122 -162.00360555 845.23699696 -171.03759766 840.26367188 C-177.88796003 836.50444827 -184.80222956 832.88095983 -191.74462891 829.29492188 C-200.54189891 824.75058757 -209.26054399 820.08660284 -217.93603516 815.31445312 C-224.82111251 811.54004381 -231.76876391 807.89840551 -238.74462891 804.29492188 C-247.54189011 799.75056977 -256.26054347 795.08660312 -264.93603516 790.31445312 C-271.82111251 786.54004381 -278.76876391 782.89840551 -285.74462891 779.29492188 C-294.54189011 774.75056977 -303.26054347 770.08660312 -311.93603516 765.31445312 C-318.82111251 761.54004381 -325.76876391 757.89840551 -332.74462891 754.29492188 C-341.54189011 749.75056977 -350.26054347 745.08660312 -358.93603516 740.31445312 C-365.82111251 736.54004381 -372.76876391 732.89840551 -379.74462891 729.29492188 C-388.54189011 724.75056977 -397.26054347 720.08660312 -405.93603516 715.31445312 C-412.82114864 711.54002401 -419.76944231 707.8997677 -426.74462891 704.29492188 C-430.91336603 702.13222025 -435.07975829 699.96505949 -439.24462891 697.79492188 C-440.74799805 697.0130249 -440.74799805 697.0130249 -442.28173828 696.21533203 C-466.14733781 683.73870959 -484.27559792 670.10448152 -494.45556641 644.36914062 C-497.30312619 635.07932925 -497.5328648 626.29825937 -497.51205444 616.66598511 C-497.51579442 615.02311054 -497.52039732 613.38023774 -497.52578509 611.73736775 C-497.53798775 607.23741262 -497.53775785 602.73753198 -497.53539634 598.23756409 C-497.53498747 593.37848268 -497.54603401 588.51942494 -497.55551147 583.66035461 C-497.57210788 574.14546513 -497.57762042 564.63060042 -497.57873623 555.11569767 C-497.57968743 547.3786228 -497.58380132 539.64155608 -497.59013748 531.9044838 C-497.60774684 509.9539641 -497.61697693 488.00346394 -497.61547653 466.05293714 C-497.61539662 464.87015538 -497.61531671 463.68737363 -497.61523438 462.46875 C-497.61515261 461.28451888 -497.61507085 460.10028775 -497.61498661 458.88017084 C-497.61417399 439.69495895 -497.63330651 420.50982562 -497.66151111 401.32463644 C-497.69026287 381.61120716 -497.70405011 361.89781617 -497.70232356 342.18436539 C-497.70166041 331.12252937 -497.70711971 320.06077569 -497.72867966 308.99895859 C-497.74692169 299.57929487 -497.75121403 290.15975082 -497.73766081 280.74007706 C-497.73114619 275.93819061 -497.73095931 271.13653352 -497.74836731 266.33466911 C-497.76417011 261.93009694 -497.76116142 257.52593462 -497.74379905 253.121372 C-497.74074491 251.53659137 -497.74430099 249.9517796 -497.7555192 248.36703573 C-497.90238546 226.12902714 -490.4233734 207.77164539 -475.11572266 191.53710938 C-463.44525893 180.20234426 -447.83560433 173.45519825 -433.53442383 166.11083984 C-426.33977808 162.41525132 -419.20365654 158.63561401 -412.11962891 154.73242188 C-404.38428823 150.47348762 -396.59007361 146.34742031 -388.74462891 142.29492188 C-380.85800963 138.22099502 -373.02231146 134.0732117 -365.24462891 129.79492188 C-356.41996472 124.94071618 -347.50906128 120.27262252 -338.56103516 115.65039062 C-331.73996586 112.11759948 -324.97508861 108.49716314 -318.24462891 104.79492188 C-309.41996472 99.94071618 -300.50906128 95.27262252 -291.56103516 90.65039062 C-284.73996586 87.11759948 -277.97508861 83.49716314 -271.24462891 79.79492188 C-262.41996472 74.94071618 -253.50906128 70.27262252 -244.56103516 65.65039062 C-237.73996586 62.11759948 -230.97508861 58.49716314 -224.24462891 54.79492188 C-215.41996472 49.94071618 -206.50906128 45.27262252 -197.56103516 40.65039062 C-190.73996586 37.11759948 -183.97508861 33.49716314 -177.24462891 29.79492188 C-168.4185305 24.93992725 -159.50620568 20.27101586 -150.55664062 15.64819336 C-143.77814342 12.13758256 -137.05753451 8.53733183 -130.36962891 4.85742188 C-122.58727027 0.59389972 -114.7893068 -3.63981239 -106.93865967 -7.77639771 C-105.24449616 -8.67210447 -103.55620419 -9.57888988 -101.86816406 -10.48608398 C-65.71432269 -29.42889931 -33.20431384 -18.35954588 0 0 Z M-79.68212891 12.10742188 C-80.91553488 12.7491049 -82.14984135 13.38905981 -83.38500977 14.02734375 C-87.02277475 15.9174001 -90.63530168 17.85108634 -94.24462891 19.79492188 C-95.25557617 20.33810059 -96.26652344 20.8812793 -97.30810547 21.44091797 C-102.98420109 24.50506588 -108.62175633 27.63441698 -114.24462891 30.79492188 C-121.09998866 34.61495253 -128.03508576 38.21033483 -135.06420898 41.69628906 C-141.5430727 44.91933128 -147.91908417 48.31929849 -154.29101562 51.74755859 C-157.76771202 53.61147105 -161.25681164 55.45192976 -164.74462891 57.29492188 C-172.58786727 61.44310379 -180.41825819 65.61502314 -188.24462891 69.79492188 C-196.78978458 74.35870843 -205.34074024 78.91105299 -213.90600586 83.43701172 C-217.3068999 85.23509669 -220.70451392 87.03862161 -224.09228516 88.86132812 C-233.05820244 93.68183957 -242.11827286 98.28571048 -251.24462891 102.79492188 C-251.24462891 103.45492187 -251.24462891 104.11492187 -251.24462891 104.79492188 C-251.80150391 104.96507813 -252.35837891 105.13523437 -252.93212891 105.31054688 C-258.340535 107.02808124 -263.22525787 109.14834442 -268.24462891 111.79492188 C-268.24462891 112.45492187 -268.24462891 113.11492187 -268.24462891 113.79492188 C-268.80150391 113.96507812 -269.35837891 114.13523437 -269.93212891 114.31054688 C-275.340535 116.02808124 -280.22525787 118.14834442 -285.24462891 120.79492188 C-285.24462891 121.45492187 -285.24462891 122.11492187 -285.24462891 122.79492188 C-286.31777344 122.96314453 -286.31777344 122.96314453 -287.41259766 123.13476562 C-290.43578889 123.83948193 -292.80785579 124.92779985 -295.55712891 126.35742188 C-296.88164062 127.03998047 -296.88164062 127.03998047 -298.23291016 127.73632812 C-298.89677734 128.08566406 -299.56064453 128.435 -300.24462891 128.79492188 C-300.24462891 129.45492187 -300.24462891 130.11492187 -300.24462891 130.79492188 C-300.80150391 130.96507812 -301.35837891 131.13523437 -301.93212891 131.31054688 C-307.340535 133.02808124 -312.22525787 135.14834442 -317.24462891 137.79492188 C-317.24462891 138.45492187 -317.24462891 139.11492187 -317.24462891 139.79492188 C-317.96884033 139.91101807 -318.69305176 140.02711426 -319.43920898 140.14672852 C-322.33049953 140.81476232 -324.51191585 141.78487 -327.13134766 143.16601562 C-328.5255896 143.89655151 -328.5255896 143.89655151 -329.94799805 144.6418457 C-330.93276123 145.16673584 -331.91752441 145.69162598 -332.93212891 146.23242188 C-333.95363037 146.77084717 -334.97513184 147.30927246 -336.02758789 147.86401367 C-343.08043033 151.59748325 -350.06675544 155.44177816 -357.0222168 159.35302734 C-362.5187811 162.4315017 -368.10421158 165.24559263 -373.76025391 168.02148438 C-377.61457578 169.98321322 -381.36572966 172.0868829 -385.11962891 174.23242188 C-391.06151344 177.62768207 -397.08697663 180.75697727 -403.23095703 183.76855469 C-408.82352042 186.53190666 -414.2447899 189.55411552 -419.65991211 192.64819336 C-423.20353917 194.66729281 -426.75516856 196.58725356 -430.43212891 198.35742188 C-435.4612414 200.80469902 -440.123767 203.76812665 -444.85400391 206.74414062 C-449.27955585 209.42088575 -453.83700359 211.75008504 -458.46728516 214.05664062 C-463.71248098 217.33949877 -466.34088368 222.00383061 -468.24462891 227.79492188 C-468.68886059 231.36798775 -468.68886059 231.36798775 -468.62494564 235.14356041 C-468.62960556 235.85299278 -468.63426548 236.56242515 -468.63906661 237.29335546 C-468.65099434 239.66478522 -468.64163006 242.03563968 -468.63230896 244.40707397 C-468.63648286 246.12674642 -468.64196069 247.84641611 -468.64862877 249.56608069 C-468.6630948 254.2874009 -468.65883502 259.00854671 -468.65146196 263.72987652 C-468.64673545 268.8233778 -468.65923558 273.91684107 -468.66947937 279.0103302 C-468.686683 288.98738407 -468.68750411 298.964375 -468.68226647 308.94143985 C-468.67822635 317.05047064 -468.67966645 325.15948282 -468.68501472 333.26851273 C-468.68576315 334.42229143 -468.68651157 335.57607013 -468.68728267 336.76481182 C-468.68881414 339.10865851 -468.69035248 341.45250519 -468.69189764 343.79635186 C-468.70562841 365.78095822 -468.70018099 387.765529 -468.68871243 409.75013454 C-468.67878006 429.86424189 -468.69171979 449.97825725 -468.71564662 470.09235041 C-468.74002741 490.74360168 -468.74964796 511.39481009 -468.74299389 532.04607546 C-468.73949933 543.64094697 -468.74174937 555.23574773 -468.75924492 566.83060837 C-468.77395414 576.7013815 -468.77461907 586.57203406 -468.75717401 596.4428048 C-468.74865103 601.4788566 -468.7465462 606.5146929 -468.76182556 611.55073357 C-468.77564389 616.16232045 -468.77094622 620.77350663 -468.75158633 625.38507016 C-468.74781723 627.05189983 -468.75077445 628.71876137 -468.76119798 630.3855627 C-469.01753787 642.69349325 -469.01753787 642.69349325 -464.24462891 653.79492188 C-458.68581885 659.23591206 -451.49918198 662.45883321 -444.61962891 665.91992188 C-442.37647929 667.06647901 -440.13430877 668.21495348 -437.89306641 669.36523438 C-436.77383789 669.93918945 -435.65460938 670.51314453 -434.50146484 671.10449219 C-429.70737498 673.59281889 -424.97423015 676.18665398 -420.24462891 678.79492188 C-412.46746539 683.07412774 -404.63121278 687.22099327 -396.74462891 691.29492188 C-387.9473677 695.83927398 -379.22871434 700.50324063 -370.55322266 705.27539062 C-363.6681453 709.04979994 -356.72049391 712.69143824 -349.74462891 716.29492188 C-340.9473677 720.83927398 -332.22871434 725.50324063 -323.55322266 730.27539062 C-316.6681453 734.04979994 -309.72049391 737.69143824 -302.74462891 741.29492188 C-293.9473677 745.83927398 -285.22871434 750.50324063 -276.55322266 755.27539062 C-269.6681453 759.04979994 -262.72049391 762.69143824 -255.74462891 766.29492188 C-246.9473677 770.83927398 -238.22871434 775.50324063 -229.55322266 780.27539062 C-222.6681453 784.04979994 -215.72049391 787.69143824 -208.74462891 791.29492188 C-199.9473677 795.83927398 -191.22871434 800.50324063 -182.55322266 805.27539062 C-175.6681453 809.04979994 -168.72049391 812.69143824 -161.74462891 816.29492188 C-152.9473677 820.83927398 -144.22871434 825.50324063 -135.55322266 830.27539062 C-127.62871954 834.61961464 -119.61476152 838.78026102 -111.58520508 842.92626953 C-104.52366029 846.58244513 -97.52650232 850.34132579 -90.55712891 854.16992188 C-87.91059468 855.61276061 -85.26323703 857.05407797 -82.61572266 858.49511719 C-80.45178882 859.68135934 -78.30109954 860.88877439 -76.15087891 862.09960938 C-74.95370946 862.74942538 -73.75585401 863.3979801 -72.55712891 864.04492188 C-71.58388672 864.58632813 -70.61064453 865.12773438 -69.60791016 865.68554688 C-61.23585817 868.44705996 -54.98217593 867.12739419 -47.28759766 863.27929688 C-44.31341173 861.74120354 -41.3724064 860.14664093 -38.43212891 858.54492188 C-36.86168554 857.71074515 -35.2902229 856.87848467 -33.71777344 856.0480957 C-29.21080288 853.65938383 -24.72574724 851.23169337 -20.24462891 848.79492188 C-19.13394043 848.19405762 -18.02325195 847.59319336 -16.87890625 846.97412109 C-13.26211912 845.01560469 -9.64927173 843.05056809 -6.0480957 841.06347656 C0.66269628 837.36105887 7.44572093 833.81177166 14.25537109 830.29492188 C22.14202175 826.22105888 29.97769046 822.07321064 37.75537109 817.79492188 C46.58003528 812.94071618 55.49093872 808.27262252 64.43896484 803.65039062 C71.26003414 800.11759948 78.02491139 796.49716314 84.75537109 792.79492188 C93.58003528 787.94071618 102.49093872 783.27262252 111.43896484 778.65039062 C118.26003414 775.11759948 125.02491139 771.49716314 131.75537109 767.79492188 C140.58003528 762.94071618 149.49093872 758.27262252 158.43896484 753.65039062 C165.26003414 750.11759948 172.02491139 746.49716314 178.75537109 742.79492188 C187.58003528 737.94071618 196.49093872 733.27262252 205.43896484 728.65039062 C212.26003414 725.11759948 219.02491139 721.49716314 225.75537109 717.79492188 C234.58003528 712.94071618 243.49093872 708.27262252 252.43896484 703.65039062 C259.26003414 700.11759948 266.02491139 696.49716314 272.75537109 692.79492188 C280.53306423 688.51662623 288.36893888 684.36922532 296.25537109 680.29492188 C304.44460482 676.06038048 312.59622648 671.76670571 320.69287109 667.35742188 C321.56169922 666.885625 322.43052734 666.41382813 323.32568359 665.92773438 C336.91380142 659.40943765 336.91380142 659.40943765 345.83304179 648.09027129 C346.85592721 644.43564938 347.00839682 641.36296805 347.01264 637.56933117 C347.01789911 636.50691338 347.01789911 636.50691338 347.02326447 635.42303261 C347.03256857 633.04961792 347.02765776 630.67644913 347.02279663 628.30302429 C347.02653339 626.58421641 347.03113501 624.86541023 347.03652728 623.14660674 C347.04876948 618.42306261 347.04849537 613.69958924 347.04613853 608.97603285 C347.04573067 603.88183793 347.0567665 598.78766578 347.06625366 593.69348145 C347.08287118 583.71296203 347.08836354 573.73246623 347.08947842 563.75193413 C347.09042851 555.64002209 347.09453684 547.52811784 347.10087967 539.41620827 C347.11849389 516.42149482 347.12771822 493.42680005 347.12621872 470.43207981 C347.12613881 469.19225959 347.1260589 467.95243936 347.12597656 466.67504883 C347.1258948 465.43371627 347.12581304 464.19238371 347.1257288 462.91343502 C347.12491578 442.7928008 347.14405701 422.67224142 347.1722533 402.55162885 C347.20097127 381.89589343 347.2147942 361.24019452 347.21306574 340.58443862 C347.21240148 328.98619382 347.21790969 317.38802748 347.23942184 305.78980064 C347.2576193 295.91534963 347.26199274 286.04101265 347.248403 276.16655215 C347.24186621 271.12847772 347.24178188 266.09062214 347.2591095 261.05256844 C347.27481365 256.43909837 347.27200373 251.82602119 347.25454123 247.21256087 C347.25146549 245.54502545 347.25512533 243.8774609 347.26626138 242.20995983 C347.57603006 228.646033 347.57603006 228.646033 341.15647256 217.15599746 C336.20311704 212.91208143 329.94524727 210.16855237 324.18188477 207.18823242 C319.02488598 204.51425392 314.13916989 201.58393803 309.27490234 198.40429688 C301.94066883 193.71948415 294.09443809 189.95760506 286.30053711 186.11206055 C279.72842057 182.83944926 273.31969108 179.28871026 266.90258789 175.72412109 C261.61791956 172.7959569 256.28553065 170.03008436 250.85693359 167.37695312 C246.84520266 165.3306672 242.93063641 163.12646612 239.00537109 160.91992188 C232.62286712 157.33574093 226.18521366 153.93390176 219.61303711 150.71142578 C214.17103859 148.03588474 208.83337815 145.18679266 203.5378418 142.23193359 C200.71690558 140.68942249 199.02620325 139.79492188 195.75537109 139.79492188 C195.42537109 139.13492188 195.09537109 138.47492188 194.75537109 137.79492188 C192.45917351 136.51183801 190.17851905 135.32100096 187.81787109 134.16992188 C187.17140625 133.84507812 186.52494141 133.52023438 185.85888672 133.18554688 C182.46961439 131.39480045 182.46961439 131.39480045 178.75537109 130.79492188 C178.42537109 130.13492188 178.09537109 129.47492188 177.75537109 128.79492188 C176.00081439 127.69189437 174.20142628 126.65931406 172.38037109 125.66992188 C171.40326172 125.13109375 170.42615234 124.59226562 169.41943359 124.03710938 C166.79211693 122.58362465 166.79211693 122.58362465 163.75537109 122.79492188 C163.42537109 122.13492188 163.09537109 121.47492188 162.75537109 120.79492188 C160.45917351 119.51183801 158.17851905 118.32100096 155.81787109 117.16992188 C154.84817383 116.68265625 154.84817383 116.68265625 153.85888672 116.18554688 C150.46961439 114.39480045 150.46961439 114.39480045 146.75537109 113.79492188 C146.75537109 113.13492188 146.75537109 112.47492188 146.75537109 111.79492188 C144.29916258 110.6235913 141.84062192 109.45770466 139.38037109 108.29492188 C138.68169922 107.96105469 137.98302734 107.6271875 137.26318359 107.28320312 C133.66709111 105.44282789 133.66709111 105.44282789 129.75537109 104.79492188 C129.75537109 104.13492188 129.75537109 103.47492188 129.75537109 102.79492188 C128.79759766 102.32183594 127.83982422 101.84875 126.85302734 101.36132812 C117.45604592 96.70163831 108.15877783 91.87816204 98.90527344 86.94042969 C95.31818834 85.02916427 91.72371083 83.1318929 88.13037109 81.23242188 C82.21866062 78.10427942 76.31448599 74.96229543 70.41455078 71.81201172 C63.58964074 68.16954393 56.7511095 64.55288239 49.91259766 60.93603516 C46.35967392 59.05663661 42.80755994 57.17570894 39.25537109 55.29492188 C37.83870839 54.5449144 36.42204172 53.7949144 35.00537109 53.04492188 C32.17203776 51.54492188 29.33870443 50.04492188 26.50537109 48.54492188 C25.45361694 47.98816772 25.45361694 47.98816772 24.38061523 47.42016602 C22.96300806 46.66959147 21.54552769 45.91877738 20.12817383 45.16772461 C16.60189394 43.29953707 13.07355751 41.4354719 9.54052734 39.58007812 C2.20446759 35.72145163 -5.07825069 31.78864727 -12.30712891 27.73242188 C-19.16588306 23.89234316 -26.09651816 20.26500684 -33.16259766 16.82226562 C-36.10234516 15.38436908 -38.9842869 13.86457288 -41.85791016 12.29882812 C-42.64101563 11.88189697 -43.42412109 11.46496582 -44.23095703 11.03540039 C-45.72757422 10.2372988 -47.21551208 9.42258601 -48.69189453 8.58764648 C-60.07328061 2.60766334 -69.01916255 6.38156501 -79.68212891 12.10742188 Z " fill="#FFC85B" transform="translate(497.24462890625,20.205078125)"/>
<path d="M0 0 C5.1321744 1.86624524 7.15431257 7.08909873 9.39306641 11.80322266 C14.78539204 23.73307155 18.85757656 35.73326525 19.4921875 48.90625 C19.57146484 50.49373047 19.57146484 50.49373047 19.65234375 52.11328125 C20.31599056 77.82238141 8.98551095 99.08724073 -8.19067383 117.43237305 C-9.62160974 118.93172222 -11.06307181 120.42020387 -12.5078125 121.90625 C-13.02778809 122.44668945 -13.54776367 122.98712891 -14.08349609 123.54394531 C-20.31772196 130.00504075 -26.6624484 136.08514359 -33.70703125 141.671875 C-36.80435125 144.14281927 -39.81163966 146.70399758 -42.8203125 149.28125 C-46.6880442 152.58587027 -50.60896528 155.78660579 -54.64477539 158.88378906 C-79.30725433 177.36737764 -79.30725433 177.36737764 -93.015625 203.68359375 C-93.76008044 222.17090396 -88.4373024 241.56698409 -82.5078125 258.90625 C-82.18683594 259.86466797 -81.86585938 260.82308594 -81.53515625 261.81054688 C-77.08977391 275.00302185 -72.05373527 287.71915665 -65.87426758 300.20410156 C-65.19400513 301.61127441 -65.19400513 301.61127441 -64.5 303.046875 C-64.09120605 303.86704102 -63.68241211 304.68720703 -63.26123047 305.53222656 C-62.35362748 308.39208769 -62.64297403 310.06279389 -63.5078125 312.90625 C-64.5078125 313.90625 -64.5078125 313.90625 -67.203125 314.28515625 C-71.5001379 313.79247274 -73.46929945 311.79600148 -76.3828125 308.84375 C-77.43677906 307.82477461 -78.49146699 306.80654483 -79.546875 305.7890625 C-80.05379883 305.29180664 -80.56072266 304.79455078 -81.08300781 304.28222656 C-82.91087238 302.517003 -84.82181704 300.86396353 -86.7578125 299.21875 C-94.5276507 292.44216947 -101.11662933 284.98546992 -107.5078125 276.90625 C-108.73371094 275.38837891 -108.73371094 275.38837891 -109.984375 273.83984375 C-128.85226168 250.20926059 -138.7477669 225.41597371 -136.5078125 194.90625 C-135.67423863 189.87211758 -133.82855379 185.43722108 -131.5078125 180.90625 C-131.06179688 179.97554687 -130.61578125 179.04484375 -130.15625 178.0859375 C-124.12425106 166.25782785 -116.18950844 155.93289594 -106.98339844 146.43310547 C-105.47914943 144.87659102 -103.99774515 143.30022686 -102.515625 141.72265625 C-94.26475875 133.07455019 -85.15565889 125.92900433 -75.5078125 118.90625 C-74.77369141 118.37 -74.03957031 117.83375 -73.28320312 117.28125 C-66.51246985 112.34413336 -59.70583379 107.45814486 -52.86328125 102.62109375 C-28.39040542 85.25557907 -11.39424253 67.99018231 -5.8671875 37.35546875 C-5.06940524 30.1312054 -5.51762875 22.76671284 -5.67919922 15.51049805 C-5.72145025 13.50072591 -5.74382995 11.4905668 -5.765625 9.48046875 C-5.7877002 8.29026123 -5.80977539 7.10005371 -5.83251953 5.8737793 C-5.5078125 2.90625 -5.5078125 2.90625 -4.1484375 0.98950195 C-2.5078125 -0.09375 -2.5078125 -0.09375 0 0 Z " fill="#FFFEFD" transform="translate(486.5078125,149.09375)"/>
<path d="M0 0 C0.4375 2.4375 0.4375 2.4375 0 5 C-3.08088622 7.94217334 -5.93496789 8.61738386 -10.0625 9.375 C-23.71091794 12.1217619 -36.84992382 14.94277013 -49 22 C-36.2988072 33.29720491 -9.3839362 32.97436169 7 35 C8.19163757 35.15045776 8.19163757 35.15045776 9.40734863 35.30395508 C38.99378061 38.99947183 68.54193266 39.37203898 98.3125 39.375 C99.22314335 39.37597813 100.1337867 39.37695625 101.0720253 39.37796402 C121.78668242 39.39923386 142.36646795 39.20125552 163.00796509 37.27825928 C165.98872414 37.00104866 168.97066952 36.74617109 171.95385742 36.49658203 C232.94876829 33.18261517 232.94876829 33.18261517 290 14 C291.02128777 11.09325789 291.08999084 9.37796154 290.375 6.375 C290 4 290 4 291.125 2.125 C293 1 293 1 295.3828125 1.18359375 C298.55325334 2.17258201 299.66541669 3.38711379 301.75 5.9375 C302.34296875 6.64777344 302.9359375 7.35804688 303.546875 8.08984375 C306.6754778 12.2024426 306.43368668 15.99134398 306 21 C303.91137949 27.822827 298.22783844 32.67086523 292.11035156 36.04101562 C267.46978528 48.37872491 240.40569536 53.74161561 213.4375 58.25 C212.32148407 58.43731689 212.32148407 58.43731689 211.18292236 58.62841797 C200.48695645 60.40964979 189.77786298 61.81813367 179 63 C178.09596436 63.1021582 177.19192871 63.20431641 176.26049805 63.30957031 C145.4029125 66.72682939 114.43051523 67.37981789 83.41546249 67.31785583 C80.57902646 67.31241176 77.74259878 67.31004728 74.90615845 67.3079834 C47.17650376 67.27654905 19.60602092 66.85766905 -8 64 C-9.5673731 63.84316464 -11.134756 63.68642713 -12.70214844 63.52978516 C-73.02407983 57.39930973 -73.02407983 57.39930973 -88.0625 40.9375 C-92.27416529 35.58727448 -93.55539488 31.3071657 -93.36328125 24.4921875 C-92.61361377 19.34930735 -89.97444155 16.56873438 -86.00390625 13.4140625 C-70.16421294 2.88988178 -16.86762328 -11.24508219 0 0 Z " fill="#FFFDFC" transform="translate(310,631)"/>
<path d="M0 0 C1.73624634 -0.00821777 1.73624634 -0.00821777 3.50756836 -0.01660156 C11.61253424 0.0541895 11.61253424 0.0541895 15 2.3125 C15.4375 4.75 15.4375 4.75 15 7.3125 C12.10256312 10.00282798 9.49342232 10.89559147 5.66796875 11.70703125 C4.62882324 11.93729004 3.58967773 12.16754883 2.51904297 12.40478516 C1.41963379 12.64245605 0.32022461 12.88012695 -0.8125 13.125 C-13.49838982 16.0146953 -24.74144922 19.7048367 -36 26.3125 C-32.86662724 28.09886256 -30.20411811 28.71418785 -26.6328125 29.12890625 C-25.5809375 29.25330078 -24.5290625 29.37769531 -23.4453125 29.50585938 C-22.34960938 29.62767578 -21.25390625 29.74949219 -20.125 29.875 C-19.06796875 30.00068359 -18.0109375 30.12636719 -16.921875 30.25585938 C-3.34369807 31.82573334 10.1471262 32.47188584 23.8046875 32.48046875 C25.40289865 32.48450722 27.00110932 32.4887438 28.59931946 32.49316406 C33.6912244 32.50455868 38.7830864 32.50309402 43.875 32.5 C44.73968021 32.49988041 45.60436043 32.49976082 46.49524307 32.4996376 C80.28622815 32.49370526 113.87794718 32.16618808 147.42724609 27.65185547 C149.74764863 27.34578605 152.0680558 27.07142894 154.39453125 26.81640625 C162.85026142 25.86376666 171.13396283 24.42046077 179.4699707 22.72094727 C192.01979506 20.20272193 192.01979506 20.20272193 197 20.3125 C199 22.3125 199 22.3125 199.34375 24.73046875 C199 27.3125 199 27.3125 197.59375 29.05078125 C185.16883422 38.3926489 170.53768105 44.11296337 156 49.3125 C155.3512793 49.54565918 154.70255859 49.77881836 154.03417969 50.01904297 C141.66204559 54.37908298 128.85540272 56.8329581 116 59.3125 C115.17338867 59.48201172 114.34677734 59.65152344 113.49511719 59.82617188 C71.09487456 68.17203206 24.87404306 68.01816797 -17.9375 63.5625 C-18.69640533 63.48427002 -19.45531067 63.40604004 -20.23721313 63.32543945 C-41.38527945 61.05558647 -69.5095167 57.4265551 -83.7578125 40.14453125 C-86.95808818 35.4246278 -86.53398894 29.77803389 -86 24.3125 C-82.61003077 16.50083177 -74.58502003 12.79338895 -67.0625 9.6875 C-45.72868603 2.02794884 -22.51612581 0.07873301 0 0 Z " fill="#FFFDFC" transform="translate(349,460.6875)"/>
<path d="M0 0 C2 2 2 2 2.4765625 4.3046875 C1.78524138 8.21461843 -0.63950964 9.80233782 -3.625 12.125 C-4.20749512 12.59800537 -4.78999023 13.07101074 -5.39013672 13.55834961 C-7.2462331 15.05735188 -9.11946499 16.53180338 -11 18 C-11.598125 18.46776855 -12.19625 18.93553711 -12.8125 19.41748047 C-15.17083232 21.25928112 -17.52963004 23.100439 -19.89355469 24.93505859 C-24.66270075 28.66320324 -29.12980245 32.62891664 -33.56640625 36.75 C-35.61004149 38.63946051 -37.68804318 40.45341918 -39.8125 42.25 C-54.14289793 54.811213 -69.29531582 68.57305691 -70.6875 88.625 C-70.38411549 100.90547746 -62.30336428 110.68198409 -55.59033203 120.42749023 C-46.496366 133.89498489 -41.56872453 149.34796232 -44.6875 165.625 C-49.72580799 184.48366673 -63.52592299 202.10121625 -79.25 213.5625 C-82.17627817 215.09214541 -83.75477352 215.54087108 -87 215 C-87.66 214.34 -88.32 213.68 -89 213 C-88.73817277 207.85073112 -87.18927928 203.44178799 -85.4206543 198.62792969 C-79.90033032 183.93054761 -79.90033032 183.93054761 -81.90625 168.74609375 C-83.42490136 166.3060655 -85.15309163 164.20566036 -87 162 C-89.16687006 159.24535547 -91.30293503 156.46722239 -93.4375 153.6875 C-94.01016602 152.94266357 -94.58283203 152.19782715 -95.17285156 151.43041992 C-109.8548764 132.18500612 -117.68748092 109.41175258 -115 85 C-112.85263086 75.66144117 -108.02803721 68.31430916 -102 61 C-101.29746094 60.14535156 -100.59492188 59.29070312 -99.87109375 58.41015625 C-79.36960242 34.60788814 -48.43859105 19.62689853 -20.5625 6.4375 C-19.90781738 6.1273999 -19.25313477 5.8172998 -18.57861328 5.49780273 C-5.12245991 -0.75330293 -5.12245991 -0.75330293 0 0 Z " fill="#FFFEFD" transform="translate(540,269)"/>
<path d="M0 0 C0.66 0.66 1.32 1.32 2 2 C1.69347955 4.9425963 1.32728846 7.34542308 0 10 C30.52187843 17.40493849 63.86424338 20.23779083 95 15 C95.68626465 14.8875293 96.3725293 14.77505859 97.07958984 14.65917969 C103.52250486 13.59730539 109.93932018 12.41344783 116.34375 11.140625 C117.40613892 10.93264282 117.40613892 10.93264282 118.48999023 10.72045898 C120.43358215 10.33787657 122.37508073 9.94470266 124.31640625 9.55078125 C125.53199219 9.36902344 126.74757813 9.18726563 128 9 C129.20269531 8.814375 130.40539062 8.62875 131.64453125 8.4375 C138.20374272 8.56230865 143.79348054 13.24195513 149.125 16.6875 C150.28939821 17.4175592 151.45475729 18.14608822 152.62109375 18.87304688 C158.03091361 22.27262094 163.24849348 25.71349857 168 30 C167.890625 32.30859375 167.890625 32.30859375 167 35 C164.296875 36.66015625 164.296875 36.66015625 160.75 38.0625 C160.11956787 38.31435059 159.48913574 38.56620117 158.83959961 38.82568359 C152.66694802 41.24103545 146.37744274 43.2016216 140 45 C138.93265625 45.32742188 137.8653125 45.65484375 136.765625 45.9921875 C124.42638344 49.59345936 111.71337738 51.26474228 99 53 C97.19269409 53.26804443 97.19269409 53.26804443 95.34887695 53.54150391 C90.06759527 54.19102699 84.79102444 54.1622804 79.4765625 54.16796875 C78.37637787 54.17129715 77.27619324 54.17462555 76.14266968 54.17805481 C73.81793635 54.18310138 71.49319583 54.18546384 69.16845703 54.18530273 C65.67077133 54.18747162 62.17341054 54.2056032 58.67578125 54.22460938 C45.96779098 54.25705945 33.58047829 53.82767437 21 52 C19.95924316 51.85393311 18.91848633 51.70786621 17.84619141 51.55737305 C-0.36822847 48.83048174 -20.58163905 45.50551948 -32.90625 30.61328125 C-36.15774555 25.81732531 -35.83725047 19.50492185 -35 14 C-30.99723918 6.42160223 -24.00067415 3.33355805 -16.25 0.75 C-10.96760028 -0.42854336 -5.3712722 -0.56191771 0 0 Z " fill="#FFFEFD" transform="translate(355,589)"/>
<path d="M0 0 C2 2 2 2 2.625 4.3125 C2 7 2 7 0.2109375 8.33203125 C-1.25448364 9.18901782 -2.74222511 10.00899841 -4.25 10.7890625 C-4.8275 11.18867187 -5.405 11.58828125 -6 12 C-6 12.99 -6 13.98 -6 15 C38.7678271 31.68302656 98.94168436 21.06980684 144.76171875 12.62109375 C145.49246109 12.48779663 146.22320343 12.35449951 146.97608948 12.21716309 C150.33344889 11.58450204 153.54197868 10.84413798 156.83300781 9.89770508 C160.55975645 8.8413333 162.30885824 8.82406103 166 10 C168.96007143 11.72367978 171.68956336 13.70909215 174.4375 15.75 C175.16259766 16.2759375 175.88769531 16.801875 176.63476562 17.34375 C178.07070548 18.38619331 179.50245118 19.43444141 180.9296875 20.48876953 C182.91725711 21.93960159 184.9371093 23.33275423 186.96484375 24.7265625 C190 27 190 27 191.125 29.625 C191 32 191 32 189.72509766 33.57495117 C186.76844558 36.01734831 183.04108045 36.49178247 179.375 37.3125 C178.47418701 37.52052246 177.57337402 37.72854492 176.64526367 37.94287109 C163.72515059 40.84105994 150.6662757 43.08512666 137.62548828 45.36279297 C134.71469261 45.87438736 131.80782873 46.40078003 128.90234375 46.94140625 C115.04693722 49.4665971 101.01208728 50.68140802 87 52 C86.05777588 52.09861328 85.11555176 52.19722656 84.14477539 52.29882812 C74.50936966 53.23664617 64.85996354 53.24354644 55.1875 53.25 C54.27681763 53.25067474 53.36613525 53.25134949 52.42785645 53.25204468 C38.42498935 53.23558773 24.77192795 52.75332048 11 50 C9.64938477 49.73461426 9.64938477 49.73461426 8.27148438 49.46386719 C-5.97410901 46.57381863 -22.09499188 43.26037709 -33 33 C-33.52335937 32.52820313 -34.04671875 32.05640625 -34.5859375 31.5703125 C-37.18997855 28.90872358 -38.34752284 26.64767701 -38.5625 23 C-38.27359131 18.79477357 -36.72158365 16.23647785 -34 13 C-25.15979267 5.35156123 -11.98593131 -1.24853451 0 0 Z " fill="#FFFDFC" transform="translate(341,528)"/>
<path d="M0 0 C3.0625 0.1875 3.0625 0.1875 5.0625 2.1875 C4.86999795 11.42759861 -0.3474991 19.40724624 -6.5234375 25.96484375 C-33.47835744 50.7825613 -73.90702221 55.54512643 -108.86328125 58.98144531 C-111.17087856 59.21068403 -113.4757963 59.46108982 -115.78125 59.7109375 C-139.92652492 62.25049907 -164.18042915 62.46469596 -188.4375 62.5 C-189.17615925 62.50129787 -189.9148185 62.50259575 -190.67586136 62.50393295 C-217.92857176 62.54001659 -244.84655239 61.33049171 -271.9375 58.1875 C-273.23436737 58.03897583 -273.23436737 58.03897583 -274.55743408 57.88745117 C-290.81881313 56.01338518 -307.00713595 53.78413555 -323.0625 50.5625 C-324.53009766 50.27161499 -324.53009766 50.27161499 -326.02734375 49.97485352 C-327.34798828 49.68952759 -327.34798828 49.68952759 -328.6953125 49.3984375 C-329.4495752 49.23649902 -330.20383789 49.07456055 -330.98095703 48.90771484 C-333.29420379 48.05619526 -334.44045439 47.1377961 -335.9375 45.1875 C-335.51644737 40.76644737 -335.51644737 40.76644737 -333.9375 39.1875 C-331.33091458 39.08558261 -328.75161453 39.04788398 -326.14453125 39.0546875 C-325.32925461 39.05373077 -324.51397797 39.05277405 -323.67399597 39.05178833 C-321.92271855 39.05110428 -320.17143864 39.05297405 -318.42016602 39.05712891 C-315.86142435 39.06227587 -313.30287519 39.05730032 -310.74414062 39.05078125 C-301.80747085 39.04745721 -292.8915918 39.20456338 -283.96130371 39.54815674 C-264.49686988 40.29628466 -245.04873271 40.340998 -225.57202148 40.31787109 C-220.73678271 40.3121945 -215.90159924 40.31555268 -211.06636238 40.321311 C-192.60494571 40.33994504 -174.153731 40.27254011 -155.69921875 39.73046875 C-155.01009714 39.71025288 -154.32097553 39.690037 -153.61097145 39.66920853 C-89.32034327 37.72685304 -27.37307147 1.74721733 0 0 Z " fill="#FFFDFB" transform="translate(634.9375,663.8125)"/>
<path d="M0 0 C8.50720588 7.07826114 12.67356129 15.60679517 16 26 C16.22816406 26.66773438 16.45632813 27.33546875 16.69140625 28.0234375 C20.69527501 41.29500247 17.25141285 53.82052923 10.96875 65.60546875 C-3.90288823 91.24724181 -38.30239112 102.77514658 -65 111 C-65.82113281 111.2578125 -66.64226563 111.515625 -67.48828125 111.78125 C-71.64179342 112.97020264 -74.80509777 113.04872556 -79 112 C-79.495 109.03 -79.495 109.03 -80 106 C-74.41160974 101.34667504 -68.79619373 96.80853352 -62.9375 92.5 C-58.14447077 88.94088127 -53.68512807 85.1619843 -49.30078125 81.11328125 C-47.22214766 79.20404395 -45.09579254 77.38023356 -42.9375 75.5625 C-32.93289644 66.76569566 -21.68941065 54.43298837 -19.6640625 40.7265625 C-19.53771712 33.92918113 -21.08144389 29.14759079 -25.7421875 24.12109375 C-32.21133818 18.46974137 -39.89663187 16.25831571 -48 14 C-48.83917969 13.76410156 -49.67835938 13.52820313 -50.54296875 13.28515625 C-55.7892927 11.9759643 -61.0036455 11.65747673 -66.3984375 11.44140625 C-69 11 -69 11 -70.9140625 9.77734375 C-72 8 -72 8 -72.07421875 5.53515625 C-69.93766042 0.49287859 -63.80631038 -1.14971394 -58.99462891 -3.20849609 C-39.74762008 -10.84604843 -17.38500258 -12.85765816 0 0 Z " fill="#FFFDFC" transform="translate(627,462)"/>
</svg>
